<svg xmlns="http://www.w3.org/2000/svg" viewBox="0 0 614 367" width="614" height="367">
  <defs>
    <filter id="glow" x="-20%" y="-20%" width="140%" height="140%">
      <feGaussianBlur in="SourceGraphic" stdDeviation="4" result="blur"/>
      <feMerge><feMergeNode in="blur"/><feMergeNode in="SourceGraphic"/></feMerge>
    </filter>
    <linearGradient id="border-grad" x1="0%" y1="0%" x2="100%" y2="100%">
      <stop offset="0%" stop-color="#22D3EE" stop-opacity="0.5"/>
      <stop offset="50%" stop-color="#8B5CF6" stop-opacity="0.5"/>
      <stop offset="100%" stop-color="#EC4899" stop-opacity="0.5"/>
    </linearGradient>
  </defs>
  <rect width="614" height="367" rx="16" fill="#0F172A"/>
  <rect width="614" height="367" rx="16" fill="none" stroke="url(#border-grad)" stroke-width="1.5"/>
  <circle cx="24" cy="20" r="7" fill="#EF4444"/>
  <circle cx="48" cy="20" r="7" fill="#EAB308"/>
  <circle cx="72" cy="20" r="7" fill="#22C55E"/>
  <g filter="url(#glow)">
    <rect x="92.5" y="63.0" width="10" height="10" rx="2" fill="#22D3EE"/>
    <rect x="105.5" y="63.0" width="10" height="10" rx="2" fill="#22D3EE"/>
    <rect x="118.5" y="63.0" width="10" height="10" rx="2" fill="#06B6D4"/>
    <rect x="131.5" y="63.0" width="10" height="10" rx="2" fill="#06B6D4"/>
    <rect x="92.5" y="76.0" width="10" height="10" rx="2" fill="#22D3EE"/>
    <rect x="144.5" y="76.0" width="10" height="10" rx="2" fill="#06B6D4"/>
    <rect x="92.5" y="89.0" width="10" height="10" rx="2" fill="#22D3EE"/>
    <rect x="144.5" y="89.0" width="10" height="10" rx="2" fill="#06B6D4"/>
    <rect x="92.5" y="102.0" width="10" height="10" rx="2" fill="#22D3EE"/>
    <rect x="105.5" y="102.0" width="10" height="10" rx="2" fill="#22D3EE"/>
    <rect x="118.5" y="102.0" width="10" height="10" rx="2" fill="#06B6D4"/>
    <rect x="131.5" y="102.0" width="10" height="10" rx="2" fill="#06B6D4"/>
    <rect x="92.5" y="115.0" width="10" height="10" rx="2" fill="#22D3EE"/>
    <rect x="92.5" y="128.0" width="10" height="10" rx="2" fill="#22D3EE"/>
    <rect x="92.5" y="141.0" width="10" height="10" rx="2" fill="#22D3EE"/>
    <rect x="196.5" y="63.0" width="10" height="10" rx="2" fill="#0EA5E9"/>
    <rect x="209.5" y="63.0" width="10" height="10" rx="2" fill="#3B82F6"/>
    <rect x="222.5" y="63.0" width="10" height="10" rx="2" fill="#3B82F6"/>
    <rect x="183.5" y="76.0" width="10" height="10" rx="2" fill="#0EA5E9"/>
    <rect x="235.5" y="76.0" width="10" height="10" rx="2" fill="#3B82F6"/>
    <rect x="183.5" y="89.0" width="10" height="10" rx="2" fill="#0EA5E9"/>
    <rect x="235.5" y="89.0" width="10" height="10" rx="2" fill="#3B82F6"/>
    <rect x="183.5" y="102.0" width="10" height="10" rx="2" fill="#0EA5E9"/>
    <rect x="196.5" y="102.0" width="10" height="10" rx="2" fill="#0EA5E9"/>
    <rect x="209.5" y="102.0" width="10" height="10" rx="2" fill="#3B82F6"/>
    <rect x="222.5" y="102.0" width="10" height="10" rx="2" fill="#3B82F6"/>
    <rect x="235.5" y="102.0" width="10" height="10" rx="2" fill="#3B82F6"/>
    <rect x="183.5" y="115.0" width="10" height="10" rx="2" fill="#0EA5E9"/>
    <rect x="235.5" y="115.0" width="10" height="10" rx="2" fill="#3B82F6"/>
    <rect x="183.5" y="128.0" width="10" height="10" rx="2" fill="#0EA5E9"/>
    <rect x="235.5" y="128.0" width="10" height="10" rx="2" fill="#3B82F6"/>
    <rect x="183.5" y="141.0" width="10" height="10" rx="2" fill="#0EA5E9"/>
    <rect x="235.5" y="141.0" width="10" height="10" rx="2" fill="#3B82F6"/>
    <rect x="274.5" y="63.0" width="10" height="10" rx="2" fill="#6366F1"/>
    <rect x="287.5" y="63.0" width="10" height="10" rx="2" fill="#6366F1"/>
    <rect x="300.5" y="63.0" width="10" height="10" rx="2" fill="#6366F1"/>
    <rect x="313.5" y="63.0" width="10" height="10" rx="2" fill="#8B5CF6"/>
    <rect x="274.5" y="76.0" width="10" height="10" rx="2" fill="#6366F1"/>
    <rect x="326.5" y="76.0" width="10" height="10" rx="2" fill="#8B5CF6"/>
    <rect x="274.5" y="89.0" width="10" height="10" rx="2" fill="#6366F1"/>
    <rect x="326.5" y="89.0" width="10" height="10" rx="2" fill="#8B5CF6"/>
    <rect x="274.5" y="102.0" width="10" height="10" rx="2" fill="#6366F1"/>
    <rect x="287.5" y="102.0" width="10" height="10" rx="2" fill="#6366F1"/>
    <rect x="300.5" y="102.0" width="10" height="10" rx="2" fill="#6366F1"/>
    <rect x="313.5" y="102.0" width="10" height="10" rx="2" fill="#8B5CF6"/>
    <rect x="274.5" y="115.0" width="10" height="10" rx="2" fill="#6366F1"/>
    <rect x="274.5" y="128.0" width="10" height="10" rx="2" fill="#6366F1"/>
    <rect x="274.5" y="141.0" width="10" height="10" rx="2" fill="#6366F1"/>
    <rect x="365.5" y="63.0" width="10" height="10" rx="2" fill="#A855F7"/>
    <rect x="378.5" y="63.0" width="10" height="10" rx="2" fill="#A855F7"/>
    <rect x="391.5" y="63.0" width="10" height="10" rx="2" fill="#A855F7"/>
    <rect x="404.5" y="63.0" width="10" height="10" rx="2" fill="#A855F7"/>
    <rect x="417.5" y="63.0" width="10" height="10" rx="2" fill="#C084FC"/>
    <rect x="365.5" y="76.0" width="10" height="10" rx="2" fill="#A855F7"/>
    <rect x="365.5" y="89.0" width="10" height="10" rx="2" fill="#A855F7"/>
    <rect x="365.5" y="102.0" width="10" height="10" rx="2" fill="#A855F7"/>
    <rect x="378.5" y="102.0" width="10" height="10" rx="2" fill="#A855F7"/>
    <rect x="391.5" y="102.0" width="10" height="10" rx="2" fill="#A855F7"/>
    <rect x="404.5" y="102.0" width="10" height="10" rx="2" fill="#A855F7"/>
    <rect x="365.5" y="115.0" width="10" height="10" rx="2" fill="#A855F7"/>
    <rect x="365.5" y="128.0" width="10" height="10" rx="2" fill="#A855F7"/>
    <rect x="365.5" y="141.0" width="10" height="10" rx="2" fill="#A855F7"/>
    <rect x="378.5" y="141.0" width="10" height="10" rx="2" fill="#A855F7"/>
    <rect x="391.5" y="141.0" width="10" height="10" rx="2" fill="#A855F7"/>
    <rect x="404.5" y="141.0" width="10" height="10" rx="2" fill="#A855F7"/>
    <rect x="417.5" y="141.0" width="10" height="10" rx="2" fill="#C084FC"/>
    <rect x="456.5" y="63.0" width="10" height="10" rx="2" fill="#D946EF"/>
    <rect x="469.5" y="63.0" width="10" height="10" rx="2" fill="#D946EF"/>
    <rect x="482.5" y="63.0" width="10" height="10" rx="2" fill="#D946EF"/>
    <rect x="495.5" y="63.0" width="10" height="10" rx="2" fill="#D946EF"/>
    <rect x="456.5" y="76.0" width="10" height="10" rx="2" fill="#D946EF"/>
    <rect x="508.5" y="76.0" width="10" height="10" rx="2" fill="#EC4899"/>
    <rect x="456.5" y="89.0" width="10" height="10" rx="2" fill="#D946EF"/>
    <rect x="508.5" y="89.0" width="10" height="10" rx="2" fill="#EC4899"/>
    <rect x="456.5" y="102.0" width="10" height="10" rx="2" fill="#D946EF"/>
    <rect x="469.5" y="102.0" width="10" height="10" rx="2" fill="#D946EF"/>
    <rect x="482.5" y="102.0" width="10" height="10" rx="2" fill="#D946EF"/>
    <rect x="495.5" y="102.0" width="10" height="10" rx="2" fill="#D946EF"/>
    <rect x="456.5" y="115.0" width="10" height="10" rx="2" fill="#D946EF"/>
    <rect x="482.5" y="115.0" width="10" height="10" rx="2" fill="#D946EF"/>
    <rect x="456.5" y="128.0" width="10" height="10" rx="2" fill="#D946EF"/>
    <rect x="495.5" y="128.0" width="10" height="10" rx="2" fill="#D946EF"/>
    <rect x="456.5" y="141.0" width="10" height="10" rx="2" fill="#D946EF"/>
    <rect x="508.5" y="141.0" width="10" height="10" rx="2" fill="#EC4899"/>
  </g>
  <g filter="url(#glow)">
    <rect x="60.0" y="178.0" width="10" height="10" rx="2" fill="#22D3EE"/>
    <rect x="73.0" y="178.0" width="10" height="10" rx="2" fill="#22D3EE"/>
    <rect x="86.0" y="178.0" width="10" height="10" rx="2" fill="#22D3EE"/>
    <rect x="99.0" y="178.0" width="10" height="10" rx="2" fill="#22D3EE"/>
    <rect x="60.0" y="191.0" width="10" height="10" rx="2" fill="#22D3EE"/>
    <rect x="112.0" y="191.0" width="10" height="10" rx="2" fill="#06B6D4"/>
    <rect x="60.0" y="204.0" width="10" height="10" rx="2" fill="#22D3EE"/>
    <rect x="112.0" y="204.0" width="10" height="10" rx="2" fill="#06B6D4"/>
    <rect x="60.0" y="217.0" width="10" height="10" rx="2" fill="#22D3EE"/>
    <rect x="112.0" y="217.0" width="10" height="10" rx="2" fill="#06B6D4"/>
    <rect x="60.0" y="230.0" width="10" height="10" rx="2" fill="#22D3EE"/>
    <rect x="112.0" y="230.0" width="10" height="10" rx="2" fill="#06B6D4"/>
    <rect x="60.0" y="243.0" width="10" height="10" rx="2" fill="#22D3EE"/>
    <rect x="112.0" y="243.0" width="10" height="10" rx="2" fill="#06B6D4"/>
    <rect x="60.0" y="256.0" width="10" height="10" rx="2" fill="#22D3EE"/>
    <rect x="73.0" y="256.0" width="10" height="10" rx="2" fill="#22D3EE"/>
    <rect x="86.0" y="256.0" width="10" height="10" rx="2" fill="#22D3EE"/>
    <rect x="99.0" y="256.0" width="10" height="10" rx="2" fill="#22D3EE"/>
    <rect x="151.0" y="178.0" width="10" height="10" rx="2" fill="#06B6D4"/>
    <rect x="164.0" y="178.0" width="10" height="10" rx="2" fill="#0EA5E9"/>
    <rect x="177.0" y="178.0" width="10" height="10" rx="2" fill="#0EA5E9"/>
    <rect x="164.0" y="191.0" width="10" height="10" rx="2" fill="#0EA5E9"/>
    <rect x="164.0" y="204.0" width="10" height="10" rx="2" fill="#0EA5E9"/>
    <rect x="164.0" y="217.0" width="10" height="10" rx="2" fill="#0EA5E9"/>
    <rect x="164.0" y="230.0" width="10" height="10" rx="2" fill="#0EA5E9"/>
    <rect x="164.0" y="243.0" width="10" height="10" rx="2" fill="#0EA5E9"/>
    <rect x="151.0" y="256.0" width="10" height="10" rx="2" fill="#06B6D4"/>
    <rect x="164.0" y="256.0" width="10" height="10" rx="2" fill="#0EA5E9"/>
    <rect x="177.0" y="256.0" width="10" height="10" rx="2" fill="#0EA5E9"/>
    <rect x="229.0" y="178.0" width="10" height="10" rx="2" fill="#3B82F6"/>
    <rect x="242.0" y="178.0" width="10" height="10" rx="2" fill="#3B82F6"/>
    <rect x="255.0" y="178.0" width="10" height="10" rx="2" fill="#3B82F6"/>
    <rect x="268.0" y="178.0" width="10" height="10" rx="2" fill="#6366F1"/>
    <rect x="216.0" y="191.0" width="10" height="10" rx="2" fill="#3B82F6"/>
    <rect x="216.0" y="204.0" width="10" height="10" rx="2" fill="#3B82F6"/>
    <rect x="216.0" y="217.0" width="10" height="10" rx="2" fill="#3B82F6"/>
    <rect x="242.0" y="217.0" width="10" height="10" rx="2" fill="#3B82F6"/>
    <rect x="255.0" y="217.0" width="10" height="10" rx="2" fill="#3B82F6"/>
    <rect x="268.0" y="217.0" width="10" height="10" rx="2" fill="#6366F1"/>
    <rect x="216.0" y="230.0" width="10" height="10" rx="2" fill="#3B82F6"/>
    <rect x="268.0" y="230.0" width="10" height="10" rx="2" fill="#6366F1"/>
    <rect x="216.0" y="243.0" width="10" height="10" rx="2" fill="#3B82F6"/>
    <rect x="268.0" y="243.0" width="10" height="10" rx="2" fill="#6366F1"/>
    <rect x="229.0" y="256.0" width="10" height="10" rx="2" fill="#3B82F6"/>
    <rect x="242.0" y="256.0" width="10" height="10" rx="2" fill="#3B82F6"/>
    <rect x="255.0" y="256.0" width="10" height="10" rx="2" fill="#3B82F6"/>
    <rect x="307.0" y="178.0" width="10" height="10" rx="2" fill="#8B5CF6"/>
    <rect x="320.0" y="178.0" width="10" height="10" rx="2" fill="#8B5CF6"/>
    <rect x="333.0" y="178.0" width="10" height="10" rx="2" fill="#8B5CF6"/>
    <rect x="346.0" y="178.0" width="10" height="10" rx="2" fill="#8B5CF6"/>
    <rect x="359.0" y="178.0" width="10" height="10" rx="2" fill="#A855F7"/>
    <rect x="307.0" y="191.0" width="10" height="10" rx="2" fill="#8B5CF6"/>
    <rect x="307.0" y="204.0" width="10" height="10" rx="2" fill="#8B5CF6"/>
    <rect x="307.0" y="217.0" width="10" height="10" rx="2" fill="#8B5CF6"/>
    <rect x="320.0" y="217.0" width="10" height="10" rx="2" fill="#8B5CF6"/>
    <rect x="333.0" y="217.0" width="10" height="10" rx="2" fill="#8B5CF6"/>
    <rect x="346.0" y="217.0" width="10" height="10" rx="2" fill="#8B5CF6"/>
    <rect x="307.0" y="230.0" width="10" height="10" rx="2" fill="#8B5CF6"/>
    <rect x="307.0" y="243.0" width="10" height="10" rx="2" fill="#8B5CF6"/>
    <rect x="307.0" y="256.0" width="10" height="10" rx="2" fill="#8B5CF6"/>
    <rect x="320.0" y="256.0" width="10" height="10" rx="2" fill="#8B5CF6"/>
    <rect x="333.0" y="256.0" width="10" height="10" rx="2" fill="#8B5CF6"/>
    <rect x="346.0" y="256.0" width="10" height="10" rx="2" fill="#8B5CF6"/>
    <rect x="359.0" y="256.0" width="10" height="10" rx="2" fill="#A855F7"/>
    <rect x="411.0" y="178.0" width="10" height="10" rx="2" fill="#C084FC"/>
    <rect x="424.0" y="178.0" width="10" height="10" rx="2" fill="#C084FC"/>
    <rect x="437.0" y="178.0" width="10" height="10" rx="2" fill="#C084FC"/>
    <rect x="450.0" y="178.0" width="10" height="10" rx="2" fill="#C084FC"/>
    <rect x="398.0" y="191.0" width="10" height="10" rx="2" fill="#A855F7"/>
    <rect x="398.0" y="204.0" width="10" height="10" rx="2" fill="#A855F7"/>
    <rect x="411.0" y="217.0" width="10" height="10" rx="2" fill="#C084FC"/>
    <rect x="424.0" y="217.0" width="10" height="10" rx="2" fill="#C084FC"/>
    <rect x="437.0" y="217.0" width="10" height="10" rx="2" fill="#C084FC"/>
    <rect x="450.0" y="230.0" width="10" height="10" rx="2" fill="#C084FC"/>
    <rect x="450.0" y="243.0" width="10" height="10" rx="2" fill="#C084FC"/>
    <rect x="398.0" y="256.0" width="10" height="10" rx="2" fill="#A855F7"/>
    <rect x="411.0" y="256.0" width="10" height="10" rx="2" fill="#C084FC"/>
    <rect x="424.0" y="256.0" width="10" height="10" rx="2" fill="#C084FC"/>
    <rect x="437.0" y="256.0" width="10" height="10" rx="2" fill="#C084FC"/>
    <rect x="489.0" y="178.0" width="10" height="10" rx="2" fill="#D946EF"/>
    <rect x="502.0" y="178.0" width="10" height="10" rx="2" fill="#D946EF"/>
    <rect x="515.0" y="178.0" width="10" height="10" rx="2" fill="#EC4899"/>
    <rect x="528.0" y="178.0" width="10" height="10" rx="2" fill="#EC4899"/>
    <rect x="541.0" y="178.0" width="10" height="10" rx="2" fill="#EC4899"/>
    <rect x="515.0" y="191.0" width="10" height="10" rx="2" fill="#EC4899"/>
    <rect x="515.0" y="204.0" width="10" height="10" rx="2" fill="#EC4899"/>
    <rect x="515.0" y="217.0" width="10" height="10" rx="2" fill="#EC4899"/>
    <rect x="515.0" y="230.0" width="10" height="10" rx="2" fill="#EC4899"/>
    <rect x="515.0" y="243.0" width="10" height="10" rx="2" fill="#EC4899"/>
    <rect x="515.0" y="256.0" width="10" height="10" rx="2" fill="#EC4899"/>
  </g>
  <text x="307.0" y="317" text-anchor="middle" font-family="ui-monospace, SFMono-Regular, Menlo, monospace" font-size="13" fill="#64748B" letter-spacing="4">AI-POWERED PAPER READING PIPELINE</text>
</svg>